<?xml version="1.0" encoding="UTF-8"?>
<svg width="512px" height="512px" viewBox="0 0 512 512" version="1.1" xmlns="http://www.w3.org/2000/svg" xmlns:xlink="http://www.w3.org/1999/xlink">
    <title>favicon</title>
    <g id="favicon" stroke="none" fill="none" fill-rule="evenodd">
        <path d="M146.141456,-7.25467311e-15 L365.858544,7.25467311e-15 C416.675112,-4.215174e-15 435.102427,5.29105984 453.680205,15.2265641 C472.257983,25.1620684 486.837932,39.7420171 496.773436,58.3197949 C506.70894,76.8975727 512,95.3248882 512,146.141456 L512,365.858544 C512,416.675112 506.70894,435.102427 496.773436,453.680205 C486.837932,472.257983 472.257983,486.837932 453.680205,496.773436 C435.102427,506.70894 416.675112,512 365.858544,512 L146.141456,512 C95.3248882,512 76.8975727,506.70894 58.3197949,496.773436 C39.7420171,486.837932 25.1620684,472.257983 15.2265641,453.680205 C5.29105984,435.102427 0,416.675112 0,365.858544 L7.25467311e-15,146.141456 C-4.215174e-15,95.3248882 5.29105984,76.8975727 15.2265641,58.3197949 C25.1620684,39.7420171 39.7420171,25.1620684 58.3197949,15.2265641 C76.8975727,5.29105984 95.3248882,4.215174e-15 146.141456,-7.25467311e-15 Z" id="background" fill="#DDDFD2"></path>
        <path d="M434.398296,128.948192 C369.188486,170.133517 327.218655,194.743805 292.818484,200.764919 C283.410971,168.569331 286.570319,122.768663 293.923058,51.752 C275.330278,122.672815 261.960936,167.162231 240.888852,193.764026 C210.329406,179.056693 178.846376,144.932166 131.128765,89.3856261 C168.784103,149.920252 191.670084,189.682501 197.351323,222.720752 C163.790895,232.382756 115.282781,228.650011 38.62,220.198087 C114.990003,239.696486 162.104755,253.454658 189.898773,275.105641 C174.370854,306.720816 138.052982,339.719129 77.9934168,390.663637 C143.130032,349.523574 185.079901,324.922604 219.458779,318.865547 C228.821044,351.054478 225.660365,396.828523 218.316942,467.752 C236.903068,396.855147 250.269749,352.371056 271.329855,325.766599 C301.943865,340.42867 333.456172,374.573165 381.262948,430.224872 C343.551716,369.601054 320.655088,329.810849 315.016435,296.744643 C348.572871,287.129232 397.055699,290.864639 473.62,299.305913 C397.384409,279.842126 350.302927,266.095935 322.490278,244.511513 C338.015536,212.896338 374.333407,179.895362 434.398296,128.948192 Z" id="splash" fill="#2C2C2A"></path>
    </g>
</svg>