<?xml version="1.0" encoding="UTF-8"?>
<svg width="512px" height="512px" viewBox="0 0 512 512" version="1.1" xmlns="http://www.w3.org/2000/svg" xmlns:xlink="http://www.w3.org/1999/xlink">
    <title>favicon</title>
    <g id="favicon" stroke="none" fill="none" fill-rule="evenodd" stroke-width="1">
        <g fill="#e0f5ef" id="quill">
            <path d="M177.666667,417 C167.371795,417 158.558761,413.328125 151.227564,405.984375 C143.896368,398.640625 140.230769,389.8125 140.230769,379.5 L140.230769,323.25 L196.384615,323.25 L196.384615,281.0625 C185.465812,280.4375 175.092949,278.015625 165.266026,273.796875 C155.439103,269.578125 146.470085,263.25 138.358974,254.8125 L138.358974,234.1875 L116.833333,234.1875 L56,173.25 C67.2307692,158.875 81.1132479,148.71875 97.6474359,142.78125 C114.181624,136.84375 130.871795,133.875 147.717949,133.875 C156.141026,133.875 164.330128,134.5 172.285256,135.75 C180.240385,137 188.273504,139.34375 196.384615,142.78125 L196.384615,117 L421,117 L421,360.75 C421,376.375 415.540598,389.65625 404.621795,400.59375 C393.702991,411.53125 380.444444,417 364.846154,417 L177.666667,417 Z M233.820513,323.25 L346.128205,323.25 L346.128205,360.75 C346.128205,366.0625 347.922009,370.515625 351.509615,374.109375 C355.097222,377.703125 359.542735,379.5 364.846154,379.5 C370.149573,379.5 374.595085,377.703125 378.182692,374.109375 C381.770299,370.515625 383.564103,366.0625 383.564103,360.75 L383.564103,154.5 L233.820513,154.5 L233.820513,165.75 L346.128205,278.25 L346.128205,304.5 L319.923077,304.5 L266.576923,251.0625 L262.833333,254.8125 C258.465812,259.1875 253.864316,263.09375 249.028846,266.53125 C244.193376,269.96875 239.123932,272.625 233.820513,274.5 L233.820513,323.25 Z M132.74359,196.6875 L175.794872,196.6875 L175.794872,237 C179.538462,239.5 183.438034,241.21875 187.49359,242.15625 C191.549145,243.09375 195.760684,243.5625 200.128205,243.5625 C207.303419,243.5625 213.776709,242.46875 219.548077,240.28125 C225.319444,238.09375 231.012821,234.1875 236.628205,228.5625 L240.371795,224.8125 L214.166667,198.5625 C205.119658,189.5 194.980769,182.703125 183.75,178.171875 C172.519231,173.640625 160.508547,171.375 147.717949,171.375 C141.478632,171.375 135.551282,171.84375 129.935897,172.78125 C124.320513,173.71875 118.705128,175.125 113.089744,177 L132.74359,196.6875 Z M308.692308,360.75 L177.666667,360.75 L177.666667,379.5 L311.5,379.5 C310.564103,376.6875 309.862179,373.71875 309.394231,370.59375 C308.926282,367.46875 308.692308,364.1875 308.692308,360.75 Z" fill-rule="nonzero"></path>
        </g>
    </g>
</svg>