<?xml version="1.0" encoding="UTF-8"?>
<svg width="1677px" height="548px" viewBox="0 0 1677 548" version="1.1" xmlns="http://www.w3.org/2000/svg" xmlns:xlink="http://www.w3.org/1999/xlink">
    <title>LeidaLogo</title>
    <g id="Page-1" stroke="none" stroke-width="1" fill="none" fill-rule="evenodd">
        <g id="new_logo" fill="#2C2C2A" transform="translate(10.443, 6.168)">
            <path d="M1369.187,492.719715 C1364.8308,492.719715 1359.75544,488.366955 1359.75544,480.383251 C1359.75544,472.399547 1361.20589,467.320113 1366.28125,450.63089 L1441,188.668177 L1383.69149,196.651881 L1372.0879,239.467381 L1370.63745,239.467381 C1365.55724,205.36226 1339.4443,188.670607 1315.5034,188.670607 C1224.82728,188.670607 1107.30937,329.44871 1107.30937,446.280561 C1107.30937,452.925142 1107.92647,459.645063 1109.12182,466.238606 C1093.94434,482.983727 1078.72071,494.173065 1071.05544,494.173065 C1066.70409,494.173065 1062.35275,490.54455 1062.35275,484.011766 C1062.35275,474.582003 1067.43296,457.887919 1068.88341,452.08424 L1198.00492,0 L1185.67246,0 L1074.68521,19.5934927 L1075.40922,30.4790365 C1088.46811,29.7523614 1089.91856,29.7523614 1095.72035,29.7523614 C1116.03149,29.7523614 1128.36395,30.4790365 1128.36395,49.3434238 C1128.36395,54.4252885 1127.63994,58.7780478 1126.18949,63.8574822 L1121.10928,79.82003 C1119.65883,84.1727893 1118.20838,89.254654 1118.20838,90.7055737 L1081.21344,219.147213 C1059.44942,188.668177 1028.98028,188.668177 1024.62894,188.668177 C925.97171,188.668177 809.904241,330.172955 809.904241,438.294426 C809.904241,439.713751 809.940684,441.150089 809.994134,442.598579 C785.798125,480.108622 761.947114,493.443959 756.252221,493.443959 C748.999978,493.443959 743.195754,486.916036 743.195754,480.383251 C743.195754,473.850467 743.922193,470.948627 748.275969,456.434569 L825.171609,188.668177 L813.563161,188.668177 L702.66337,209.695577 C689.628769,196.479326 668.705381,188.668177 644.873806,188.668177 C534.955558,188.668177 442.894591,313.201811 434.4713,411.582434 C397.177522,477.508146 344.006555,493.443959 261.882498,493.443959 L195.868866,493.443959 C182.812399,493.443959 155.244158,493.443959 155.244158,468.771032 C155.244158,462.967353 155.970597,459.336408 158.871495,449.904215 L250.27405,131.341049 C251.000489,126.988289 257.526293,108.119041 261.156058,96.5116831 C279.29031,43.5373144 315.561242,43.5373144 351.105736,43.5373144 L355.459511,30.4766061 L132.753702,30.4766061 L128.402356,43.5373144 L134.20658,43.5373144 C149.439935,43.5373144 187.885325,43.5373144 187.885325,79.82003 C187.885325,90.7055737 185.708437,99.4135227 179.180204,123.359775 C178.453765,126.261614 177.003316,130.614374 176.279307,131.341049 L94.305882,417.976689 L83.4238734,453.532729 C66.0136315,507.228912 27.5658115,507.228912 3.45261539e-14,507.228912 L3.45261539e-14,520.292051 L414.94248,520.292051 L437.500964,454.674994 C447.89463,494.386936 479.826365,529 530.251926,529 C599.892894,529 657.201404,476.028062 680.41344,453.530299 L670.98188,444.82478 C650.670741,464.415843 614.399809,493.441529 572.324653,493.441529 C558.541747,493.441529 495.429012,487.63785 495.429012,409.26874 C495.429012,391.123737 497.6059,382.418218 499.782788,373.712699 C664.453647,367.90416 716.681943,282.280451 716.681943,243.093465 C716.681943,234.667437 714.524492,226.982666 710.683354,220.194695 C719.218406,218.821546 721.686841,218.422968 726.504663,218.422968 C745.365353,218.422968 752.620026,232.210352 752.620026,242.36922 C752.620026,249.62625 751.169577,255.429929 747.542241,267.766392 L696.035525,447.72905 C694.585076,452.08181 693.134627,457.163674 693.134627,458.614594 C690.23373,471.675302 688.056843,478.205656 688.056843,491.99304 C688.056843,506.507098 692.408188,529 714.896215,529 C743.489731,529 781.373893,503.909052 812.430985,462.697584 C819.192456,495.976386 839.610496,529 874.457705,529 C933.943103,529 1002.85763,433.214992 1029.69943,394.030437 L1031.14988,395.481357 L1014.46608,452.08181 C1010.83874,463.694028 1006.48497,479.656576 1006.48497,496.345799 C1006.48497,511.588963 1016.63811,529 1036.22767,529 C1055.43336,529 1086.26207,510.706745 1113.32982,482.327532 C1122.41881,508.327431 1141.68038,529 1170.40995,529 C1232.06981,529 1290.10476,457.161244 1317.67057,420.878528 L1319.12102,422.329448 C1317.67057,425.957963 1309.68946,452.08181 1308.23901,457.885489 C1303.15879,477.481412 1302.43721,489.08877 1302.43721,496.345799 C1302.43721,515.212617 1311.86877,529 1328.55258,529 C1356.83997,529 1403.2689,502.154339 1431.56115,450.63089 L1420.67914,443.376291 C1401.10416,478.205656 1380.06901,492.719715 1369.187,492.719715 Z M589.744613,340.331823 C560.725923,354.119207 530.259215,357.747721 504.143852,359.927746 C515.02586,305.502458 569.433474,202.460421 632.543778,202.460421 C656.482254,202.460421 666.637823,221.327238 666.637823,235.841297 C666.637823,269.217312 637.621563,317.109816 589.744613,340.331823 Z M907.113449,487.64028 C871.568956,487.64028 870.844946,446.278131 870.844946,433.944097 C870.844946,338.159089 957.169717,202.460421 1022.45691,202.460421 C1035.51338,202.460421 1065.25608,212.619289 1065.25608,251.0796 C1065.25608,341.058498 963.69795,487.64028 907.113449,487.64028 Z M1341.61876,342.509418 C1324.21095,403.46263 1260.37421,486.916036 1208.86749,486.916036 C1194.36058,486.916036 1165.34189,478.932331 1165.34189,432.490747 C1165.34189,365.728995 1241.51109,202.45799 1316.95385,202.45799 C1332.91364,202.45799 1359.75544,212.616859 1359.75544,257.607524 C1359.75544,269.217312 1357.57856,288.08656 1351.77433,308.404297 L1341.61876,342.509418 Z" id="Shape" fill-rule="nonzero"></path>
            <path d="M709.315511,85.5289253 C735.511049,92.2196826 751.655489,96.9418553 761.172084,104.381161 C755.819759,115.176782 743.409556,126.463333 722.918629,143.845206 C745.144263,129.809927 759.481109,121.417924 771.23776,119.305949 C774.466648,130.351896 773.390352,146.056826 770.863607,170.435681 C777.263074,146.01794 781.867094,130.760195 789.133914,121.643947 C799.64177,126.667483 810.455751,138.359903 826.874732,157.477047 C813.954321,136.712125 806.114124,123.075424 804.158326,111.747556 C815.650155,108.493315 832.214909,109.754668 858.344849,112.634634 C832.280507,105.977902 816.17494,101.267881 806.638909,93.8917644 C811.925636,83.0208027 824.377142,71.6977957 845.021131,54.1822534 C822.603562,68.3390501 808.208406,76.7553569 796.398305,78.7774092 C793.198572,67.736323 794.277297,52.0459745 796.796753,27.7278787 C790.443448,51.973064 785.856435,67.1846332 778.679509,76.3227543 C768.210526,71.2651931 757.418411,59.5922155 741.065028,40.5504126 C754.004876,61.3493596 761.849932,74.9957825 763.788723,86.335802 C752.287176,89.6896869 735.664112,88.4307648 709.315511,85.5289253 Z" id="Path"></path>
        </g>
    </g>
</svg>