<?xml version="1.0" encoding="UTF-8"?>
<svg width="64px" height="64px" viewBox="0 0 64 64" version="1.1" xmlns="http://www.w3.org/2000/svg" xmlns:xlink="http://www.w3.org/1999/xlink">
    <title>favicon</title>
    <g stroke="none" fill="none" fill-rule="evenodd" stroke-width="1">
        <g>
            <g>
                <path d="M18.267682,-9.06834139e-16 L45.732318,-9.06834139e-16 C52.084389,-9.06834139e-16 54.3878034,0.66138248 56.7100256,1.90332051 C59.0322479,3.14525855 60.8547415,4.96775214 62.0966795,7.28997436 C63.3386175,9.61219659 64,11.915611 64,18.267682 L64,45.732318 C64,52.084389 63.3386175,54.3878034 62.0966795,56.7100256 C60.8547415,59.0322479 59.0322479,60.8547415 56.7100256,62.0966795 C54.3878034,63.3386175 52.084389,64 45.732318,64 L18.267682,64 C11.915611,64 9.61219659,63.3386175 7.28997436,62.0966795 C4.96775214,60.8547415 3.14525855,59.0322479 1.90332051,56.7100256 C0.66138248,54.3878034 0,52.084389 0,45.732318 L0,18.267682 C0,11.915611 0.66138248,9.61219659 1.90332051,7.28997436 C3.14525855,4.96775214 4.96775214,3.14525855 7.28997436,1.90332051 C9.61219659,0.66138248 11.915611,-9.06834139e-16 18.267682,-9.06834139e-16 Z"></path>
            </g>
            
        </g>
    </g>
</svg>