<?xml version="1.0" encoding="UTF-8"?>
<svg width="301px" height="101px" viewBox="0 0 301 101" version="1.1" xmlns="http://www.w3.org/2000/svg" xmlns:xlink="http://www.w3.org/1999/xlink">
    <title>NXLogo</title>
    <g id="Page-1" stroke="none" stroke-width="1" fill="none" fill-rule="evenodd">
        <g id="NXLogo" transform="translate(1, 0)">
            <g id="NXIcon" transform="translate(-0.0298, 0.1519)" fill="#dcfffb">
                <path d="M51.1732696,71.2527634 C40.0095099,70.7205573 31.1276508,61.4246908 31.1276508,50 C31.1276508,38.2559855 40.5712085,28.7117562 52.1913483,28.7117562 C63.4955326,28.7117562 72.6933471,37.688299 73.2199396,48.9710682 L65.8476455,46.7358026 C64.4082928,40.4557707 58.826413,35.8078375 52.1913483,35.8078375 C44.4328864,35.8078375 38.1488833,42.1588302 38.1488833,50 C38.1488833,56.7057968 42.7477906,62.3471814 48.9615813,63.8018781 L51.1732696,71.2527634 Z M87.2975107,50 C87.2975107,51.0644122 87.2624045,52.1288244 87.1570861,53.1932366 L80.2411721,51.0998926 C80.2762782,50.7450885 80.2762782,50.3548041 80.2762782,50 C80.2762782,34.3176604 67.7082721,21.615675 52.1913483,21.615675 C36.6744245,21.615675 24.1064183,34.3176604 24.1064183,50 C24.1064183,65.6823396 36.6744245,78.384325 52.1913483,78.384325 C52.5424099,78.384325 52.9285777,78.384325 53.2796393,78.3488446 L55.3509029,85.3384847 C54.297718,85.4449259 53.2445331,85.4804063 52.1913483,85.4804063 C32.8127466,85.4804063 17.0851858,69.5851843 17.0851858,50 C17.0851858,30.4148157 32.8127466,14.5195937 52.1913483,14.5195937 C71.5699499,14.5195937 87.2975107,30.4148157 87.2975107,50 Z" id="target" fill-rule="nonzero" transform="translate(52.1913, 50) rotate(-224) translate(-52.1913, -50)"></path>
                <polygon id="arrow" transform="translate(26.0865, 49.5458) rotate(-224) translate(-26.0865, -49.5458)" points="29.5261203 46.0152841 42.8485642 41.4992231 7.62369319 31.0851633 18.0287644 66.3397327 22.5411195 53.0061132 37.5288005 68.0065015 44.5492582 60.9801859"></polygon>
            </g>
            <text id="NX" font-family="Helvetica-Bold, Helvetica" font-size="40" font-weight="bold" fill="#dcfffb">
                <tspan x="108" y="81">NX</tspan>
            </text>
            <text id="Goldlabel" font-family="Helvetica" font-size="28" font-weight="normal" fill="#dcfffb">
                <tspan x="108" y="42">Goldlabel</tspan>
            </text>
        </g>
    </g>
</svg>