<?xml version="1.0" encoding="UTF-8"?>
<svg width="512px" height="512px" viewBox="0 0 512 512" version="1.1" xmlns="http://www.w3.org/2000/svg" xmlns:xlink="http://www.w3.org/1999/xlink">
    <title>favicon</title>
    <g id="Page-1" stroke="none" stroke-width="1" fill="none" fill-rule="evenodd">
        <g id="favicon">
            <path d="M146.141456,0 L365.858544,0 C416.675112,0 435.102427,5.29105984 453.680205,15.2265641 C472.257983,25.1620684 486.837932,39.7420171 496.773436,58.3197949 C506.70894,76.8975727 512,95.3248882 512,146.141456 L512,365.858544 C512,416.675112 506.70894,435.102427 496.773436,453.680205 C486.837932,472.257983 472.257983,486.837932 453.680205,496.773436 C435.102427,506.70894 416.675112,512 365.858544,512 L146.141456,512 C95.3248882,512 76.8975727,506.70894 58.3197949,496.773436 C39.7420171,486.837932 25.1620684,472.257983 15.2265641,453.680205 C5.29105984,435.102427 0,416.675112 0,365.858544 L0,146.141456 C0,95.3248882 5.29105984,76.8975727 15.2265641,58.3197949 C25.1620684,39.7420171 39.7420171,25.1620684 58.3197949,15.2265641 C76.8975727,5.29105984 95.3248882,0 146.141456,0 Z" id="bg" fill="#EAF0F5"></path>
            <g id="NXIcon" transform="translate(244.2421, 244.247)" fill="#364450">
                <path d="M9.2720942,104.002522 C-41.7381447,101.595205 -82.3217624,59.547401 -82.3217624,7.87032788 C-82.3217624,-45.2511356 -39.1715918,-88.4223551 13.9239714,-88.4223551 C65.5758485,-88.4223551 107.603152,-47.8189404 110.009295,3.21618154 L76.3232888,-6.89455018 C69.746497,-35.3008917 44.2413775,-56.3247941 13.9239714,-56.3247941 C-21.5265406,-56.3247941 -50.2398512,-27.597477 -50.2398512,7.87032788 C-50.2398512,38.202523 -29.2261993,63.720084 -0.833707816,70.300084 L9.2720942,104.002522 Z M174.333527,7.87032788 C174.333527,12.684962 174.173118,17.4995961 173.691889,22.3142303 L142.091206,12.8454498 C142.251616,11.2405717 142.251616,9.47520592 142.251616,7.87032788 C142.251616,-63.0652819 84.8249952,-120.519917 13.9239714,-120.519917 C-56.9770525,-120.519917 -114.403674,-63.0652819 -114.403674,7.87032788 C-114.403674,78.8059376 -56.9770525,136.260571 13.9239714,136.260571 C15.5280669,136.260571 17.292572,136.260571 18.8966676,136.100083 L28.3608314,167.716181 C23.5485447,168.197644 18.736258,168.358132 13.9239714,168.358132 C-74.6221037,168.358132 -146.485586,96.4595961 -146.485586,7.87032788 C-146.485586,-80.7189404 -74.6221037,-152.617478 13.9239714,-152.617478 C102.470046,-152.617478 174.333527,-80.7189404 174.333527,7.87032788 Z" id="target" fill-rule="nonzero" transform="translate(13.924, 7.8703) rotate(136) translate(-13.924, -7.8703)"></path>
                <polygon id="arrow" transform="translate(-105.242, 5.818) rotate(136) translate(105.242, -5.818)" points="-89.6020806 -10.070313 -29.1276779 -30.2917764 -189.537234 -78.4381178 -141.414367 82.049687 -121.202763 21.5457846 -52.7078827 90.0740773 -20.9467905 58.2974919"></polygon>
            </g>
        </g>
    </g>
</svg>