<?xml version="1.0" encoding="UTF-8"?>
<svg width="512px" height="512px" viewBox="0 0 512 512" version="1.1" xmlns="http://www.w3.org/2000/svg" xmlns:xlink="http://www.w3.org/1999/xlink">
    <title>favicon</title>
    <g id="Page-1" stroke="none" stroke-width="1" fill="none" fill-rule="evenodd">
        <g id="favicon">
            <path d="M146.141456,0 L365.858544,0 C416.675112,0 435.102427,5.29105984 453.680205,15.2265641 C472.257983,25.1620684 486.837932,39.7420171 496.773436,58.3197949 C506.70894,76.8975727 512,95.3248882 512,146.141456 L512,365.858544 C512,416.675112 506.70894,435.102427 496.773436,453.680205 C486.837932,472.257983 472.257983,486.837932 453.680205,496.773436 C435.102427,506.70894 416.675112,512 365.858544,512 L146.141456,512 C95.3248882,512 76.8975727,506.70894 58.3197949,496.773436 C39.7420171,486.837932 25.1620684,472.257983 15.2265641,453.680205 C5.29105984,435.102427 0,416.675112 0,365.858544 L0,146.141456 C0,95.3248882 5.29105984,76.8975727 15.2265641,58.3197949 C25.1620684,39.7420171 39.7420171,25.1620684 58.3197949,15.2265641 C76.8975727,5.29105984 95.3248882,0 146.141456,0 Z" id="bg" fill="#364450"></path>
            <g id="NXIcon" transform="translate(244.2421, 244.247)" fill="#FFD849">
                <path d="M9.27216453,104.002496 C-41.7380744,101.595179 -82.3216921,59.5473746 -82.3216921,7.87030147 C-82.3216921,-45.251162 -39.1715215,-88.4223815 13.9240417,-88.4223815 C65.5759188,-88.4223815 107.603222,-47.8189668 110.009365,3.21615513 L76.3233591,-6.89457659 C69.7465673,-35.3009181 44.2414478,-56.3248205 13.9240417,-56.3248205 C-21.5264703,-56.3248205 -50.2397809,-27.5975034 -50.2397809,7.87030147 C-50.2397809,38.2024966 -29.226129,63.7200576 -0.833637488,70.3000576 L9.27216453,104.002496 Z M174.333597,7.87030147 C174.333597,12.6849356 174.173188,17.4995697 173.691959,22.3142039 L142.091276,12.8454234 C142.251686,11.2405453 142.251686,9.47517951 142.251686,7.87030147 C142.251686,-63.0653083 84.8250655,-120.519943 13.9240417,-120.519943 C-56.9769822,-120.519943 -114.403604,-63.0653083 -114.403604,7.87030147 C-114.403604,78.8059112 -56.9769822,136.260545 13.9240417,136.260545 C15.5281372,136.260545 17.2926423,136.260545 18.8967379,136.100057 L28.3609017,167.716155 C23.548615,168.197618 18.7363283,168.358106 13.9240417,168.358106 C-74.6220334,168.358106 -146.485516,96.4595697 -146.485516,7.87030147 C-146.485516,-80.7189668 -74.6220334,-152.617504 13.9240417,-152.617504 C102.470116,-152.617504 174.333597,-80.7189668 174.333597,7.87030147 Z" id="target" fill-rule="nonzero" transform="translate(13.924, 7.8703) rotate(136) translate(-13.924, -7.8703)"></path>
                <polygon id="arrow" transform="translate(-105.242, 5.818) rotate(136) translate(105.242, -5.818)" points="-89.6020735 -10.0702696 -29.1276708 -30.291733 -189.537227 -78.4380744 -141.41436 82.0497304 -121.202756 21.545828 -52.7078756 90.0741207 -20.9467834 58.2975353"></polygon>
            </g>
        </g>
    </g>
</svg>