<?xml version="1.0" encoding="UTF-8"?>
<svg width="512px" height="512px" viewBox="0 0 512 512" version="1.1" xmlns="http://www.w3.org/2000/svg" xmlns:xlink="http://www.w3.org/1999/xlink">
    <title>favicon</title>
    <g id="favicon" stroke="none" fill="none" fill-rule="evenodd">
        <path d="M163.104927,84.1157464 C158.049496,84.0789954 152.869713,88.9670724 152.426559,93.6464523 C151.613057,102.236951 159.760468,107.295534 164.613817,113.527452 C166.81719,116.356648 168.478093,119.539257 170.585597,122.302008 C173.066157,125.553772 176.593492,127.19181 179.124778,129.88171 C180.113851,130.932834 181.2464,133.887116 182.11547,135.084681 C183.210837,136.594264 184.4047,137.994119 185.599467,139.459926 C187.864565,142.238775 190.239077,144.228584 193.052967,146.63595 C195.89181,149.064589 196.742412,151.072713 198.485477,154.296306 C199.854173,156.827609 202.600921,158.95581 203.449389,161.181994 C204.826456,164.795056 201.583859,168.861814 201.798992,172.528098 C201.960691,175.283786 202.266031,177.889994 202.475419,180.194449 C203.126811,187.361521 203.388238,194.585756 204.97691,201.539449 C205.78286,205.067012 205.442718,208.880229 206.493515,212.377896 C207.667433,216.285401 209.695154,218.391919 205.994054,216.351517 C203.71377,215.094325 200.41741,210.630541 198.472098,208.752432 C195.664282,206.041506 192.880352,203.245738 190.024026,200.716734 C186.822223,197.881953 183.773828,195.836213 180.089555,193.442152 C178.783651,192.593484 177.157879,191.069856 175.663436,190.707654 C173.121233,190.091337 171.448921,192.267256 169.60268,192.254526 C170.407646,192.261014 165.238697,188.038862 164.794969,187.747705 C163.203342,186.702987 161.415379,185.114393 159.794613,184.278127 C154.847036,181.725469 149.660932,182.580872 144.613955,180.620056 C140.388278,178.978323 136.213983,176.068309 132.081549,174.321447 C130.905579,173.824385 130.326417,172.247536 128.585979,171.819875 C126.07472,171.202901 123.502147,172.176984 121.117539,172.073334 C120.293367,172.037524 119.304952,173.470068 118.562121,173.437462 C118.763137,173.44625 114.351629,171.16898 114.192803,171.083234 C109.978042,168.807443 106.115735,168.555134 102.22191,165.882892 C96.7696182,162.141047 89.3940123,156.407587 82.5804128,159.222738 C70.2436862,164.319677 77.7227959,175.656582 86.4538002,179.930067 C90.5448655,181.932441 95.4179957,182.589989 99.3372661,184.844262 C103.558758,187.272408 106.775171,188.210353 111.243808,189.77825 C118.76207,192.416079 125.655534,196.850295 133.429067,198.873531 C136.445861,199.65863 139.89013,200.34016 142.706729,201.649259 C147.092792,203.687854 155.22157,206.9682 158.620121,210.355974 C161.678858,213.405119 163.817962,218.414998 166.880967,221.72023 C170.01136,225.098313 174.141906,228.278704 177.837179,231.560365 C182.330357,235.550576 187.065756,239.051364 191.648649,242.58328 C194.84643,245.047728 200.480941,249.944101 204.331674,250.705217 C199.896772,250.110664 194.3482,252.806888 190.113658,253.735718 C185.641574,254.7167 180.743245,256.428328 176.470864,258.085831 C171.306019,260.08952 163.263507,261.503994 159.029211,265.406325 C155.921801,268.27018 154.557948,272.715649 150.503901,274.489286 C147.101903,275.977679 144.557074,276.406408 141.384409,278.655013 C137.087157,281.700709 132.908265,284.169674 128.363868,286.859328 C124.259998,289.288213 120.986785,290.924033 117.810427,294.178261 C116.044625,295.98738 114.4223,298.2065 112.522461,300.032948 C110.622457,301.859478 108.074509,302.982139 105.822707,304.688099 C101.946119,307.625052 98.7466956,310.600689 94.2725597,312.90613 C89.8679462,315.175762 84.0059901,317.477589 83.0243051,323.069618 C80.5019657,337.437517 96.4096945,336.531521 104.658311,330.337383 C111.459598,325.230096 118.077681,317.453853 126.421921,313.798903 C128.823192,312.747123 130.989465,312.458758 133.408711,310.960344 C136.573496,309.000104 139.107901,306.380919 142.0326,304.111534 C145.524312,301.402168 149.197915,300.150725 153.03371,298.192373 C158.306983,295.500091 163.435466,291.278761 169.960634,290.653902 C175.664175,290.107725 180.772794,289.028595 186.147519,287.401316 C192.166168,285.578975 197.565353,283.936666 203.300084,281.307872 C206.248176,279.956475 212.023126,276.681467 215.200798,276.704464 C214.83045,276.701836 206.699045,287.028684 205.08263,288.966749 C201.504815,293.256496 198.012692,297.558398 194.329896,301.817673 C191.547361,305.035846 189.239417,308.099856 186.906437,311.4795 C183.860998,315.891294 183.245064,320.044291 181.169983,324.823051 C178.528873,330.905078 175.628223,338.749656 174.834749,346.064564 C173.734212,356.209901 170.877393,365.795838 170.116341,376.054352 C169.20106,388.392116 170.56048,401.14284 170.631562,413.537521 C170.671207,420.460004 172.640651,444.196355 185.673668,436.452389 C191.099611,433.228386 188.714264,422.210562 188.44742,417.119456 C188.199701,412.394 188.601568,408.260879 188.740859,403.364506 C189.081247,391.398224 192.701498,381.31153 193.638695,369.390585 C193.817385,367.118161 193.324983,364.730177 193.542168,362.499476 C193.75566,360.306309 193.875251,359.522936 194.514906,357.327798 C195.042028,355.519008 195.602804,354.020923 196.169735,352.254842 C197.383298,348.474477 198.182846,345.118981 199.046909,341.180266 C199.937074,337.122706 201.414608,335.62306 205.03412,333.835707 C207.806313,332.466733 209.456792,331.364195 211.457672,329.270572 C211.930867,328.7754 215.646742,323.321188 216.528535,323.327019 C218.53434,323.343528 214.397802,328.93646 214.244476,329.36601 C213.416692,331.686481 214.171916,334.350838 213.42884,336.744406 C213.047821,337.971867 211.442405,338.624979 211.078213,339.833714 C208.961681,346.859601 211.338902,356.228627 213.083116,362.665547 C216.318572,374.606121 224.616437,387.236439 236.47332,392.414031 C257.465044,401.580602 279.503379,392.022837 289.638127,372.559642 C292.832215,366.425625 295.273869,360.339655 295.519618,352.582794 C295.683123,347.421629 295.798118,342.236481 294.920183,337.22882 C294.714242,336.054253 291.584178,325.865222 292.355818,325.871874 C293.657946,325.881155 300.805286,335.006168 302.612046,336.389925 C304.198665,337.605148 306.911186,338.453242 308.265189,340.01194 C311.287153,343.490717 309.999718,346.194169 310.890868,350.33657 C311.799747,354.56094 314.502664,358.308616 315.582189,362.367244 C317.422602,369.287016 315.621423,377.055293 316.157164,384.213987 C316.48639,388.613051 318.383767,391.922636 318.885526,396.246057 C319.342387,400.182472 318.967114,405.405072 319.393605,409.844627 C319.914489,415.267054 319.832983,418.805951 319.259157,424.18263 C318.659476,429.802584 316.516349,436.832496 322.006316,440.62978 C329.761463,445.993893 335.634418,435.606103 336.416154,428.991286 C337.219149,422.196354 336.839772,415.315594 337.706626,408.542016 C338.521934,402.17072 337.021253,395.930342 338.20108,389.668199 C339.869124,380.814386 338.019518,371.507287 336.607894,362.361002 C334.925569,351.460709 333.001351,341.35151 329.041779,331.066796 C327.356499,326.689251 327.390562,324.166981 325.445989,320.162807 C323.056702,315.242781 320.136764,311.937138 316.911239,307.703242 C313.404753,303.100655 309.92724,298.570262 306.085372,294.539806 C304.458697,292.833352 303.15977,290.676652 301.699883,288.947941 C301.039872,288.166457 295.290121,282.260273 295.295538,281.718203 C295.300463,281.183114 317.000954,289.576085 319.806882,290.505243 C323.065321,291.584209 326.472326,292.996302 329.852983,293.837579 C332.764713,294.562228 336.118119,294.554672 339.089276,294.849525 C339.908359,294.930836 342.630811,294.318132 343.057384,294.422604 C348.484312,295.752236 351.310925,301.169078 356.078417,303.462281 C358.637775,304.693274 362.051428,304.640299 364.588214,306.1498 C367.271021,307.746197 369.386076,310.420574 371.793585,312.363649 C378.668827,317.912723 386.773637,321.838297 394.444816,327.286103 C402.514168,333.01677 409.338438,342.42793 420.17711,340.636799 C423.55867,340.077974 427.07673,336.42861 427.780572,332.344193 C428.953341,325.538419 420.841553,322.189 416.289769,319.627226 C407.23471,314.530862 400.333448,307.130783 393.319982,300.49264 C389.197398,296.590638 385.285022,294.375871 380.263819,291.535012 C375.797973,289.008308 372.741124,285.868736 368.600564,283.099332 C363.179874,279.473622 358.712961,278.806382 354.542359,273.716179 C353.031418,271.872073 352.102839,270.421131 349.962832,269.139792 C348.596517,268.321677 346.935122,267.914221 345.497479,267.155323 C344.366735,266.55847 343.006412,265.277378 341.682122,264.80668 C335.373155,262.564234 329.072559,261.011778 322.694234,258.615335 C320.276711,257.706957 317.580033,258.121805 315.131976,257.283239 C312.027685,256.219795 310.318355,253.688902 306.368304,254.437863 C310.132934,253.492279 316.297358,248.255141 319.672187,245.634725 C323.637423,242.555766 327.449086,239.835231 331.280448,236.682353 C336.307561,232.545536 342.579346,228.16988 346.925436,223.224475 C349.060273,220.795179 349.692458,216.609247 352.22555,214.618371 C353.954908,213.259171 356.035243,213.506799 357.887968,212.688026 C362.146806,210.805975 365.679887,207.695149 369.970983,205.862623 C374.024291,204.131694 378.347481,204.303678 382.485168,202.98308 C384.63954,202.295473 387.451952,200.824984 389.624217,199.875868 C391.024596,199.264068 390.727218,198.403491 392.521173,197.779864 C393.777664,197.343004 395.555286,197.637775 396.863405,197.326414 C400.260479,196.517908 404.482134,195.233283 407.531596,193.725753 C411.903377,191.564618 415.325813,188.680805 420.071062,187.367434 C424.79029,186.061291 429.25786,184.318782 432.616766,180.546713 C436.644218,176.023794 435.667376,168.935651 430.196042,165.698753 C424.91177,162.572404 418.388079,166.075163 414.142128,168.808839 C412.413509,169.921726 410.448087,171.544733 408.653475,172.458204 C405.842457,173.888941 403.362882,173.740446 400.311451,174.692601 C396.997854,175.726559 394.617267,178.500808 390.627982,178.551073 C384.692482,178.625895 380.608804,178.015163 374.884743,180.467784 C373.542067,181.043035 371.680642,182.415623 370.365791,183.200803 C366.281949,185.639462 363.941254,185.411628 359.521702,186.33709 C353.222584,187.65621 349.197019,191.863167 343.642209,194.432744 C340.525113,195.874651 340.106748,194.453934 337.00459,194.914448 C334.187745,195.332663 333.302916,196.422224 331.221432,197.635804 C326.747378,200.244394 322.596229,203.108989 318.610638,206.514996 C315.993988,208.7512 313.562758,210.987076 311.191611,213.175314 C309.466029,214.767687 304.704529,221.252489 302.512318,221.23713 C303.96572,221.247643 308.492962,198.587795 308.772529,195.641972 C309.303755,190.045754 309.577166,184.654948 310.584542,179.401712 C311.639608,173.899371 308.461279,168.764652 309.342908,163.893987 C310.854916,155.540768 320.454498,147.337603 325.734256,142.538146 C328.629734,139.906149 330.669275,137.563173 333.197688,134.282088 C336.527619,129.960885 341.200719,127.131525 344.574892,122.684086 C347.925343,118.26802 350.43143,114.099829 354.210918,109.870285 C358.513915,105.054813 362.209434,101.550164 360.834582,94.0906214 C358.743659,82.7456669 346.324934,85.1991095 341.392542,93.3868336 C339.117183,97.1638309 337.808324,100.938939 335.325712,104.235055 C332.063662,108.565949 326.492928,113.685474 321.791428,116.134974 C317.397157,118.424399 315.036763,120.446814 311.616625,124.128538 C308.014432,128.006147 306.651154,133.095283 302.671226,136.308609 C299.483787,138.882047 296.867793,140.111725 294.279297,143.445621 C291.417964,147.130795 290.541096,151.492817 288.15616,155.60056 C287.070151,157.471112 285.690374,158.277319 284.479684,159.994942 C281.784647,163.818672 282.825266,166.114586 281.78555,170.702389 C281.071284,173.853624 279.422201,176.520199 279.007037,179.799477 C278.576195,175.14449 275.496118,173.388675 275.721019,168.467253 C276.028165,161.747143 272.303343,156.558545 265.547118,160.93913 C260.864087,163.975462 260.833307,167.484381 260.71823,172.966846 C260.673906,175.075089 260.018246,178.464342 260.648625,180.413495 C260.63147,180.360355 265.712018,187.596746 265.113076,187.440614 C262.121481,186.411748 258.56632,190.122218 257.616975,190.115402 C257.85583,190.117044 251.603006,187.633541 251.612609,187.637237 C249.893101,186.983961 248.766462,188.454531 248.107025,186.794975 C247.412541,185.047291 250.719818,182.138346 251.400513,180.697424 C253.677349,175.877353 254.174429,167.098444 250.533659,162.614455 C247.263893,158.587366 238.928928,156.906538 236.916227,163.128108 C235.759218,166.704703 239.505298,169.635168 238.709116,172.714291 C238.650838,172.939496 233.470234,178.769461 233.572342,178.769954 C233.065904,178.765766 230.838317,165.485703 230.68261,164.830044 C229.517146,159.923159 225.778043,156.447175 223.615873,151.832104 C221.399449,147.101392 218.763263,140.122073 214.543578,137.025621 C211.959185,135.129114 210.575469,135.402695 208.457952,132.788192 C206.828568,130.776455 205.563048,128.685788 204.269949,126.466504 C201.959952,122.502081 198.763977,117.808164 194.405246,115.755032 C190.460941,113.897128 189.868155,114.424907 186.957245,111.678253 C184.655785,109.506605 182.299659,106.853418 180.274072,104.630684 C175.69791,99.6087318 172.0706,84.1842063 163.104927,84.1157464 Z" id="spider" fill="#000000"></path>
    </g>
</svg>