<svg xmlns="http://www.w3.org/2000/svg" viewBox="78.443 116.168 593.111 217.664">
<g>
	<path style="fill:#F7F7F4;" d="M641.996,318.904c-1.793,0-3.882-1.791-3.882-5.076c0-3.285,0.597-5.375,2.686-12.242
		l30.754-107.788l-23.588,3.285L643.19,214.7h-0.597c-2.091-14.033-12.839-20.901-22.693-20.901
		c-37.322,0-85.692,57.925-85.692,105.997c0,2.734,0.254,5.499,0.746,8.212c-6.247,6.89-12.513,11.494-15.668,11.494
		c-1.791,0-3.582-1.493-3.582-4.181c0-3.88,2.091-10.749,2.688-13.137l53.146-186.016h-5.076l-45.682,8.062l0.298,4.479
		c5.375-0.299,5.972-0.299,8.36-0.299c8.36,0,13.436,0.299,13.436,8.061c0,2.091-0.298,3.882-0.895,5.972l-2.091,6.568
		c-0.597,1.791-1.194,3.882-1.194,4.479l-15.227,52.849c-8.958-12.541-21.499-12.541-23.29-12.541
		c-40.607,0-88.38,58.224-88.38,102.712c0,0.584,0.015,1.175,0.037,1.771c-9.959,15.434-19.776,20.921-22.12,20.921
		c-2.985,0-5.374-2.686-5.374-5.374s0.299-3.882,2.091-9.854l31.65-110.176h-4.778l-45.646,8.652
		c-5.365-5.438-13.977-8.652-23.786-8.652c-45.242,0-83.134,51.241-86.601,91.721c-15.35,27.126-37.235,33.683-71.037,33.683
		h-27.171c-5.374,0-16.721,0-16.721-10.152c0-2.388,0.299-3.882,1.493-7.763l37.621-131.077c0.299-1.791,2.985-9.555,4.479-14.331
		c7.464-21.797,22.393-21.797,37.023-21.797l1.792-5.374h-91.665l-1.791,5.374h2.389c6.27,0,22.094,0,22.094,14.929
		c0,4.479-0.896,8.062-3.583,17.915c-0.299,1.194-0.896,2.985-1.194,3.284l-33.74,117.94l-4.479,14.63
		c-7.166,22.094-22.991,22.094-34.337,22.094v5.375h170.789l9.285-26.999c4.278,16.34,17.421,30.581,38.176,30.581
		c28.664,0,52.252-21.795,61.806-31.052l-3.882-3.582c-8.36,8.061-23.289,20.004-40.607,20.004c-5.673,0-31.65-2.388-31.65-34.634
		c0-7.466,0.896-11.048,1.792-14.63c67.778-2.39,89.275-37.621,89.275-53.745c0-3.467-0.888-6.629-2.469-9.422
		c3.513-0.565,4.529-0.729,6.512-0.729c7.763,0,10.749,5.673,10.749,9.853c0,2.986-0.597,5.374-2.09,10.45l-21.2,74.048
		c-0.597,1.791-1.194,3.882-1.194,4.479c-1.194,5.374-2.09,8.061-2.09,13.734c0,5.972,1.791,15.227,11.047,15.227
		c11.769,0,27.362-10.324,40.145-27.281c2.783,13.693,11.187,27.281,25.53,27.281c24.484,0,52.849-39.412,63.897-55.535l0.597,0.597
		l-6.867,23.289c-1.493,4.778-3.285,11.346-3.285,18.213c0,6.272,4.179,13.436,12.242,13.436c7.905,0,20.594-7.527,31.735-19.204
		c3.741,10.698,11.669,19.204,23.494,19.204c25.379,0,49.266-29.559,60.612-44.488l0.597,0.597
		c-0.597,1.493-3.882,12.242-4.479,14.63c-2.091,8.063-2.388,12.839-2.388,15.825c0,7.763,3.882,13.436,10.749,13.436
		c11.643,0,30.753-11.046,42.398-32.246l-4.479-2.985C655.133,312.932,646.475,318.904,641.996,318.904z M321.18,256.202
		c-11.944,5.673-24.484,7.166-35.233,8.063c4.479-22.394,26.873-64.792,52.849-64.792c9.853,0,14.033,7.763,14.033,13.735
		C352.829,226.941,340.886,246.647,321.18,256.202z M451.808,316.814c-14.63,0-14.928-17.019-14.928-22.094
		c0-39.412,35.531-95.247,62.403-95.247c5.374,0,17.616,4.18,17.616,20.005C516.899,256.501,475.098,316.814,451.808,316.814z
		 M630.649,257.098c-7.165,25.08-33.44,59.418-54.64,59.418c-5.971,0-17.915-3.285-17.915-22.394c0-27.47,31.351-94.65,62.403-94.65
		c6.569,0,17.617,4.18,17.617,22.692c0,4.777-0.896,12.541-3.285,20.901L630.649,257.098z"/>
	<path style="fill:#F7F7F4;" d="M370.395,151.36c10.782,2.753,17.427,4.696,21.344,7.757c-2.203,4.442-7.311,9.086-15.745,16.238
		c9.148-5.775,15.049-9.228,19.888-10.097c1.329,4.545,0.886,11.007-0.154,21.038c2.634-10.047,4.529-16.325,7.52-20.076
		c4.325,2.067,8.776,6.878,15.534,14.744c-5.318-8.544-8.545-14.155-9.35-18.816c4.73-1.339,11.548-0.82,22.303,0.365
		c-10.728-2.739-17.357-4.677-21.282-7.712c2.176-4.473,7.301-9.132,15.798-16.339c-9.227,5.825-15.152,9.288-20.013,10.12
		c-1.317-4.543-0.873-10.999,0.164-21.005c-2.615,9.976-4.503,16.235-7.457,19.995c-4.309-2.081-8.751-6.884-15.482-14.719
		c5.326,8.558,8.555,14.173,9.353,18.839C388.082,153.072,381.24,152.554,370.395,151.36z"/>
</g>
</svg>
