<svg xmlns="http://www.w3.org/2000/svg" viewBox="65.62 68.752 326.867 312.495">
<g>
	<g>
		<polygon fill="#1B1617" points="392.487,254.713 392.487,254.713 392.487,254.713 		"/>
		<path fill="#1B1617" d="M392.487,254.713c-57.285-14.621-92.663-24.947-113.562-41.161c11.667-23.75,38.957-48.539,84.091-86.811h0
			c-49,30.938-80.537,49.425-106.386,53.948c-7.069-24.185-4.695-58.59,0.83-111.937c-13.971,53.275-24.017,86.695-39.851,106.678
			c-22.963-11.048-46.62-36.682-82.476-78.408c28.295,45.473,45.492,75.342,49.761,100.16c-25.218,7.258-61.668,4.454-119.274-1.895
			c57.386,14.647,92.789,24.982,113.674,41.246c-11.668,23.749-38.958,48.537-84.088,86.806
			c48.945-30.904,80.467-49.384,106.3-53.934c7.035,24.18,4.66,58.565-0.858,111.842c13.966-53.257,24.01-86.673,39.835-106.658
			c23.004,11.014,46.683,36.663,82.606,78.468c-28.337-45.54-45.542-75.43-49.779-100.269
			C298.524,245.566,334.955,248.372,392.487,254.713z"/>
	</g>
	<g>
		<path style="fill:#FFFFFF;" d="M251.241,254.54h-50.064v-1.575c3.326,0,7.965,0,10.065-6.478l1.313-4.288l9.89-34.572
			c0.087-0.087,0.263-0.613,0.35-0.963c0.788-2.888,1.05-3.938,1.05-5.251c0-4.376-4.639-4.376-6.477-4.376h-0.7l0.525-1.576h26.87
			l-0.525,1.576c-4.288,0-8.665,0-10.853,6.389c-0.438,1.4-1.226,3.676-1.313,4.201l-11.028,38.423
			c-0.35,1.139-0.438,1.576-0.438,2.276c0,2.976,3.326,2.976,4.901,2.976h7.964c11.203,0,17.942-2.451,22.494-13.304h1.663
			L251.241,254.54z"/>
	</g>
</g>
</svg>
